<?xml version="1.0" standalone="no"?>
<!DOCTYPE svg PUBLIC "-//W3C//DTD SVG 20010904//EN"
 "http://www.w3.org/TR/2001/REC-SVG-20010904/DTD/svg10.dtd">
<svg version="1.0" xmlns="http://www.w3.org/2000/svg"
 width="500.000000pt" height="500.000000pt" viewBox="0 0 500.000000 500.000000"
 preserveAspectRatio="xMidYMid meet">
<metadata>
Created by potrace 1.11, written by Peter Selinger 2001-2013
</metadata>
<g transform="translate(0.000000,500.000000) scale(0.100000,-0.100000)"
fill="#000000" stroke="none">
<path d="M2064 4842 c-24 -8 -144 -162 -144 -185 0 -9 -29 -30 -68 -50 -37
-19 -99 -54 -137 -78 -99 -62 -401 -305 -454 -365 -56 -63 -139 -236 -236
-489 -95 -249 -185 -508 -185 -534 0 -23 42 -59 131 -113 105 -64 325 -103
488 -86 46 4 86 6 88 4 2 -2 15 -57 28 -122 28 -133 61 -223 108 -295 30 -47
34 -49 67 -43 70 12 160 62 216 121 62 64 123 179 149 280 36 143 38 360 5
511 -7 30 -35 111 -62 180 -44 109 -51 139 -55 212 -4 69 -1 94 15 130 l19 45
7 -55 c12 -95 38 -181 87 -297 106 -248 137 -387 126 -558 -7 -94 -19 -142
-85 -335 -70 -203 -76 -281 -30 -415 28 -85 116 -214 199 -293 189 -179 331
-522 353 -852 l6 -85 -20 90 c-73 338 -237 589 -454 695 -114 56 -180 71 -343
77 -160 6 -190 0 -225 -50 -21 -29 -23 -49 -35 -342 -12 -298 -34 -609 -53
-745 -13 -92 -5 -99 148 -125 202 -36 588 -36 892 0 72 8 240 33 373 55 157
26 301 44 409 50 154 9 190 13 242 27 22 6 21 14 -18 283 -22 148 -26 213 -26
420 l-1 245 -19 -46 c-35 -87 -50 -191 -52 -366 -1 -150 -2 -159 -9 -83 -19
218 -6 383 42 535 19 61 22 94 23 255 1 138 -4 212 -18 290 -15 87 -18 152
-16 378 0 151 4 280 6 287 3 8 29 22 57 31 29 9 102 40 162 69 61 29 136 64
168 78 36 17 57 32 57 42 0 43 -208 580 -282 730 -117 235 -277 373 -624 542
-143 69 -153 76 -203 138 -78 96 -154 161 -209 179 -27 9 -96 21 -153 26 -117
10 -423 12 -455 2z m836 -481 c0 -36 -20 9 -25 54 l-5 50 15 -45 c8 -25 15
-52 15 -59z m-114 -102 c15 -17 16 -22 4 -29 -23 -14 -69 18 -55 40 10 16 30
12 51 -11z m81 -126 c14 -21 14 -23 -2 -30 -20 -7 -59 32 -49 49 9 15 35 5 51
-19z m-379 -33 c18 -11 41 -34 52 -52 11 -18 23 -32 27 -31 5 2 8 -16 8 -40 0
-42 0 -43 38 -43 39 -1 45 4 25 24 -17 17 -29 15 -22 -3 4 -8 2 -15 -4 -15
-24 0 -30 77 -7 86 19 8 48 -15 41 -32 -3 -7 2 -26 10 -41 14 -25 15 -25 11
-4 -6 27 8 71 22 71 11 0 41 -52 41 -71 0 -8 -7 -6 -19 5 -17 16 -19 16 -24
-4 -5 -20 -4 -21 45 -24 12 0 23 -7 26 -15 4 -11 -6 -12 -49 -5 -30 4 -80 7
-111 7 -44 -1 -58 3 -58 14 0 12 -3 12 -22 -1 -30 -22 -66 -20 -106 4 -18 11
-37 18 -42 15 -5 -3 -11 -1 -15 5 -4 6 -13 5 -25 -2 -15 -10 -22 -10 -32 0 -9
9 -8 12 6 12 23 0 16 22 -12 35 -12 5 -22 13 -22 17 0 13 38 28 54 22 12 -5
16 0 16 19 0 33 43 67 84 67 17 0 46 -9 64 -20z m261 -135 l0 -30 -14 34 c-8
18 -12 38 -9 43 10 16 24 -13 23 -47z"/>
<path d="M2470 4015 c-10 -12 -10 -21 -1 -38 11 -22 11 -22 6 0 -4 14 0 25 11
31 10 5 12 12 6 16 -5 3 -15 -1 -22 -9z"/>
<path d="M2328 3994 c19 -25 27 -24 18 4 -4 10 -13 19 -20 19 -12 0 -11 -5 2
-23z"/>
<path d="M2364 4005 c-3 -8 -4 -20 -1 -27 3 -7 6 -3 6 10 1 12 6 22 11 22 6 0
15 -10 20 -22 5 -14 9 -17 9 -7 1 16 -17 39 -31 39 -5 0 -11 -7 -14 -15z"/>
<path d="M2522 4000 c0 -14 2 -19 5 -12 2 6 2 18 0 25 -3 6 -5 1 -5 -13z"/>
<path d="M2600 4000 c0 -5 9 -10 21 -10 11 0 17 5 14 10 -3 6 -13 10 -21 10
-8 0 -14 -4 -14 -10z"/>
<path d="M2680 3990 c0 -5 5 -10 11 -10 5 0 7 5 4 10 -3 6 -8 10 -11 10 -2 0
-4 -4 -4 -10z"/>
<path d="M2430 3978 c0 -9 5 -20 10 -23 13 -8 13 5 0 25 -8 13 -10 13 -10 -2z"/>
<path d="M2500 3973 c0 -13 5 -23 10 -23 13 0 13 11 0 30 -8 12 -10 11 -10 -7z"/>
<path d="M2550 3970 c0 -5 5 -10 11 -10 5 0 7 5 4 10 -3 6 -8 10 -11 10 -2 0
-4 -4 -4 -10z"/>
<path d="M1601 2484 c0 -27 8 -132 18 -234 l17 -185 7 80 c4 44 5 109 2 145
-6 66 -35 231 -41 239 -2 2 -4 -18 -3 -45z"/>
<path d="M1928 589 c-193 -13 -342 -44 -361 -76 -3 -5 -3 -20 0 -35 5 -24 40
-45 67 -39 15 3 36 -21 36 -42 0 -19 1 -19 18 -4 16 15 63 17 423 17 222 1
451 -1 509 -4 366 -19 718 -11 940 21 52 8 53 9 23 15 -18 4 -88 10 -155 13
-131 7 -305 29 -533 69 -182 32 -369 53 -580 66 -187 11 -216 11 -387 -1z
m1175 -186 c-13 -2 -33 -2 -45 0 -13 2 -3 4 22 4 25 0 35 -2 23 -4z"/>
</g>
</svg>
